:FULLY-SPECIFIED
:FORCE-ALL-JOINTS-BE-3DOF
:DEGREES
102
root -2.84723 16.4957 -36.2101 2.84515 0.355638 -2.3814
lfemur -21.2795 6.11938 -9.00025
ltibia 45.0237 -0 0
lfoot -21.8297 -0.374227 -0.0119343
ltoes -7.40787 0 0
rfemur -21.6226 -5.95866 13.9117
rtibia 47.6025 -0 0
rfoot -25.7298 1.43877 -0.00270824
rtoes -6.58726 0 0
lowerback 8.39148 1.96028 -1.60205
upperback -3.48004 2.53515 1.21932
thorax -8.52872 1.36265 1.79446
lowerneck -2.44934 -3.87387 -6.61848
upperneck 5.32739 -5.22088 5.98259
head 2.5292 -2.58626 2.96937
lclavicle -1.15615e-15 -5.13113e-15 0
lhumerus -26.5911 -3.89326 89.3509
lradius 24.9081 -0 0
lwrist -30.6054 0 0
lhand -28.6586 30.3371 0.00018705
lfingers 7.12502 -0 0
lthumb -2.022 60.3072 0.000182974
rclavicle -1.15615e-15 -5.13113e-15 0
rhumerus -32.5367 2.99031 -80.45
rradius 30.6711 -0 0
rwrist 2.52357 0 0
rhand -19.8606 -27.0714 0.000617708
rfingers 7.12502 -0 0
rthumb 6.47441 -56.9537 0.000487148
103
root -2.84554 16.4954 -36.2088 2.89177 0.367963 -2.39551
lfemur -21.3506 6.12128 -8.99607
ltibia 45.077 -0 0
lfoot -21.8642 -0.35971 -0.0120911
ltoes -7.45392 0 0
rfemur -21.6762 -5.98574 13.9197
rtibia 47.6323 -0 0
rfoot -25.7539 1.44742 -0.00272893
rtoes -6.62122 0 0
lowerback 8.32148 1.95803 -1.61135
upperback -3.50372 2.53213 1.22083
thorax -8.5139 1.36201 1.80356
lowerneck -2.45009 -3.87507 -6.61563
upperneck 5.3676 -5.22416 5.98449
head 2.54307 -2.58785 2.96942
lclavicle -1.15615e-15 -5.13113e-15 0
lhumerus -26.5906 -3.85834 89.3351
lradius 24.9037 -0 0
lwrist -30.6161 0 0
lhand -28.647 30.3501 0.000181943
lfingers 7.12502 -0 0
lthumb -2.01083 60.3203 0.000178039
rclavicle -1.15615e-15 -5.13113e-15 0
rhumerus -32.5453 2.96522 -80.4472
rradius 30.6648 -0 0
rwrist 2.52993 0 0
rhand -19.8447 -27.0842 0.000650266
rfingers 7.12502 -0 0
rthumb 6.48973 -56.966 0.000516508
104
root -2.84392 16.4952 -36.2075 2.93782 0.379695 -2.4097
lfemur -21.42 6.12168 -8.99158
ltibia 45.128 -0 0
lfoot -21.8975 -0.343039 -0.0121826
ltoes -7.50326 0 0
rfemur -21.7287 -6.01193 13.9279
rtibia 47.6602 -0 0
rfoot -25.7771 1.45664 -0.00273419
rtoes -6.65529 0 0
lowerback 8.25263 1.95592 -1.62096
upperback -3.52707 2.52928 1.22242
thorax -8.49942 1.36147 1.81287
lowerneck -2.45163 -3.87619 -6.61282
upperneck 5.40759 -5.2273 5.98668
head 2.557 -2.58934 2.96958
lclavicle -1.15615e-15 -5.13113e-15 0
lhumerus -26.5901 -3.82372 89.3197
lradius 24.8997 -0 0
lwrist -30.6267 0 0
lhand -28.6355 30.3628 0.00017504
lfingers 7.12502 -0 0
lthumb -1.99969 60.3331 0.000171349
rclavicle -1.15615e-15 -5.13113e-15 0
rhumerus -32.5538 2.93979 -80.4444
rradius 30.6582 -0 0
rwrist 2.53667 0 0
rhand -19.83 -27.0968 0.000680764
rfingers 7.12502 -0 0
rthumb 6.50398 -56.9782 0.000544415
105
root -2.84236 16.495 -36.2063 2.98316 0.390801 -2.42395
lfemur -21.4873 6.12057 -8.98679
ltibia 45.1766 -0 0
lfoot -21.9295 -0.324261 -0.0122071
ltoes -7.55573 0 0
rfemur -21.78 -6.03717 13.9364
rtibia 47.6863 -0 0
rfoot -25.799 1.46642 -0.00272394
rtoes -6.6894 0 0
lowerback 8.18513 1.95396 -1.63088
upperback -3.55002 2.52659 1.22409
thorax -8.48533 1.36102 1.82235
lowerneck -2.45394 -3.87723 -6.61004
upperneck 5.44725 -5.2303 5.98914
head 2.57097 -2.59074 2.96984
lclavicle -1.15615e-15 -5.13113e-15 0
lhumerus -26.5895 -3.7895 89.3048
lradius 24.896 -0 0
lwrist -30.6369 0 0
lhand -28.6241 30.3752 0.000166457
lfingers 7.12502 -0 0
lthumb -1.98862 60.3456 0.00016302
rclavicle -1.15615e-15 -5.13113e-15 0
rhumerus -32.5622 2.91409 -80.4415
rradius 30.6515 -0 0
rwrist 2.54376 0 0
rhand -19.8164 -27.1093 0.00070868
rfingers 7.12502 -0 0
rthumb 6.51711 -56.9903 0.000570392
